<svg xmlns="http://www.w3.org/2000/svg" xmlns:xlink="http://www.w3.org/1999/xlink" width="375" height="270" viewBox="0 0 375 270">
  <defs>
    <clipPath id="clip-path">
      <rect id="Rectangle_170" data-name="Rectangle 170" width="375" height="270"/>
    </clipPath>
  </defs>
  <g id="Group_3139" data-name="Group 3139" transform="translate(-2526 138)">
    <g id="Group_3136" data-name="Group 3136" transform="translate(-39 2)">
      <g id="Group_3133" data-name="Group 3133">
        <g id="Group_3131" data-name="Group 3131" transform="translate(242 -896)">
          <g id="awards-1" transform="translate(2323 756)" clip-path="url(#clip-path)">
            <g id="Group_3139-2" data-name="Group 3139" transform="translate(-35 -398)">
              <g id="Group_3138" data-name="Group 3138" transform="translate(-1201)">
                <g id="Group_3117" data-name="Group 3117" transform="translate(10.079 19.332)">
                  <g id="Group_3097" data-name="Group 3097" transform="translate(1305.803 388.899)">
                    <path id="Path_1090" data-name="Path 1090" d="M1332.16,627.681a10.212,10.212,0,1,1-10.212-10.192,10.212,10.212,0,0,1,10.212,10.192" transform="translate(-1311.533 -617.266)" fill="#101820"/>
                    <path id="Path_1091" data-name="Path 1091" d="M1321.93,638.072a10.415,10.415,0,1,1,10.415-10.415A10.415,10.415,0,0,1,1321.93,638.072Zm0-20.384a9.969,9.969,0,1,0,7.074,2.906A9.969,9.969,0,0,0,1321.93,617.688Z" transform="translate(-1311.51 -617.241)" fill="#fff"/>
                    <path id="Path_1092" data-name="Path 1092" d="M1322.27,636.387c-4.037,0-7.321-4.659-7.321-10.387h1.087c0,5.069,2.8,9.194,6.234,9.194s6.234-4.125,6.234-9.194h1.086C1329.59,631.727,1326.31,636.387,1322.27,636.387Z" transform="translate(-1311.857 -618.123)" fill="#fff"/>
                    <path id="Path_1093" data-name="Path 1093" d="M1321.8,622.358a34.4,34.4,0,0,1-.494,5.849.75.75,0,0,0,.655.943,11.678,11.678,0,0,0,2.5.088.733.733,0,0,0,.679-.746.72.72,0,0,0-.679-.745,11.617,11.617,0,0,1-2.5-.088l.655.944a36.751,36.751,0,0,0,.542-6.245.68.68,0,1,0-1.358,0" transform="translate(-1312.495 -617.684)" fill="#fff"/>
                    <path id="Path_1094" data-name="Path 1094" d="M1324.93,625.235a4.707,4.707,0,0,1,2.414-.845,2.464,2.464,0,0,1,1.939.79c.606.694,1.566-.361.96-1.054a3.761,3.761,0,0,0-2.818-1.228,5.945,5.945,0,0,0-3.18,1.049c-.756.481-.074,1.771.685,1.288" transform="translate(-1312.76 -617.811)" fill="#fff"/>
                    <path id="Path_1095" data-name="Path 1095" d="M1321,623.948a5.951,5.951,0,0,0-3.181-1.049,3.761,3.761,0,0,0-2.818,1.228c-.6.692.354,1.748.96,1.054a2.467,2.467,0,0,1,1.939-.79,4.706,4.706,0,0,1,2.414.845c.757.482,1.442-.806.685-1.288" transform="translate(-1311.842 -617.811)" fill="#fff"/>
                  </g>
                  <path id="Path_1096" data-name="Path 1096" d="M1349.57,653.759a5.474,5.474,0,1,1,5.474-5.474A5.474,5.474,0,0,1,1349.57,653.759Zm0-10.361a4.887,4.887,0,1,0,4.887,4.887,4.887,4.887,0,0,0-4.887-4.887Z" transform="translate(-58.818 -7.52)" fill="#fff"/>
                  <path id="Path_1097" data-name="Path 1097" d="M1515.08,413.7a4.017,4.017,0,1,1,4.016-4.016,4.017,4.017,0,0,1-4.016,4.016Zm0-7.585a3.569,3.569,0,1,0,3.568,3.569,3.569,3.569,0,0,0-3.568-3.569Z" transform="translate(29.193 -24.353)" fill="#fff"/>
                  <g id="Group_3099" data-name="Group 3099" transform="translate(1527.738 397.557)">
                    <circle id="Ellipse_11" data-name="Ellipse 11" cx="5.329" cy="5.329" r="5.329" transform="translate(0.059 0.058)" fill="#fff"/>
                    <path id="Path_1098" data-name="Path 1098" d="M1502.53,434.5a5.387,5.387,0,1,1,5.387-5.387,5.387,5.387,0,0,1-5.387,5.387Zm0-10.653a5.266,5.266,0,1,0,5.271,5.265,5.266,5.266,0,0,0-5.271-5.265Z" transform="translate(-1497.143 -423.729)" fill="#101820"/>
                    <path id="Path_1099" data-name="Path 1099" d="M1507.16,426.489c.005.015.008.031.013.047a3.717,3.717,0,0,1-1.383,4.072c-1.611,1.185-3.958,1.189-7.2,2.207h-.016a5.342,5.342,0,0,0,8.583-6.33Z" transform="translate(-1497.287 -424.007)" fill="none"/>
                    <g id="Group_3098" data-name="Group 3098" transform="translate(1.103 1.128)">
                      <path id="Path_1100" data-name="Path 1100" d="M1507.3,427.442a3.733,3.733,0,0,0-.155-1.058,5.358,5.358,0,0,0-1.3-1.4,11.089,11.089,0,0,1-7.485,7.424c.064.087.131.173.2.255,3.238-1.018,5.585-1.022,7.2-2.207a3.736,3.736,0,0,0,1.54-3.014Z" transform="translate(-1498.369 -424.983)" fill="#101820"/>
                    </g>
                  </g>
                  <g id="Group_3116" data-name="Group 3116" transform="translate(1244.921 444.823)">
                    <g id="Group_3103" data-name="Group 3103">
                      <ellipse id="Ellipse_12" data-name="Ellipse 12" cx="16.021" cy="14.565" rx="16.021" ry="14.565" transform="translate(51.429 0)" fill="#00498f"/>
                      <ellipse id="Ellipse_13" data-name="Ellipse 13" cx="16.021" cy="14.565" rx="16.021" ry="14.565" transform="translate(79.033 0)" fill="#00498f"/>
                      <g id="Group_3100" data-name="Group 3100" transform="translate(2.674 6.365)">
                        <path id="Path_1101" data-name="Path 1101" d="M1247.9,444.154q1.132-1.751,2.572-4.218l2.571,1.131,2.263-1.131q.822,1.133,1.954,2.88.41.719.617,1.029l-2.777,1.542q-.208-.411-.617-1.234-.824-1.543-1.441-2.469a25.407,25.407,0,0,0-1.646,2.674q-.515.925-.719,1.336a27.551,27.551,0,0,0-2.777-1.54Zm.926-4.629V421.834h8.126v17.691Zm2.983-14.4v1.646h2.16v-1.646Zm0,4.731V431.5h2.16v-1.646Zm0,4.629v1.749h2.16v-1.749Zm20.366-2.263v6.685h.925v2.674h-.925v.617q0,2.982-3.189,3.086h-3.394a29.155,29.155,0,0,0-.618-2.88h2.778q1.13.1,1.028-.823h-7.3v3.7h-3.291v-3.7h-.925v-2.674h.925v-6.685h5.246V431.3h-5.966v-2.571h2.88V427.8h-2.16v-2.263h2.16v-.925h-2.777V422.04h2.777V420.7h3.4v1.337h2.777V420.7h3.4v1.337h2.571v2.572h-2.571v.925h2.057V427.8h-2.057v.926h3.188V431.3h-6.274v.926Zm-10.7,2.571v1.029h1.955v-1.029Zm0,3.086v1.028h1.955V437.88Zm2.264-13.269v.925h2.777v-.925Zm0,3.188v.926h2.777V427.8Zm5.039,6.995h-1.954v1.029h1.954Zm-1.954,3.086v1.028h1.954V437.88Z" transform="translate(-1247.895 -420.702)" fill="#fff"/>
                        <path id="Path_1102" data-name="Path 1102" d="M1279.77,441.275V429.138h20.469v12.138h-6.891q.719.1,1.954.308,4.833.72,7.2.925l-1.234,3.086q-1.543-.309-4.217-.823-3.5-.618-5.76-1.029l1.235-2.469h-5.143l1.543,2.571q-5.145,1.028-10.081,1.852a7.63,7.63,0,0,1-.308-.823q-.72-1.543-1.131-2.366a79.1,79.1,0,0,0,9.052-1.234Zm-1.029-12.96v-6.583h22.526v6.583Zm3.908-2.468h2.366V424.3h-2.366Zm1.132,5.966v.925h12.446v-.925Zm0,2.88v1.028h12.446v-1.028Zm12.446,4.011v-1.029h-12.446V438.7Zm-7.406-14.4v1.543h2.366V424.3Zm8.538,0h-2.366v1.543h2.366Z" transform="translate(-1250.867 -420.806)" fill="#fff"/>
                        <path id="Path_1103" data-name="Path 1103" d="M1310.06,425.034a16.384,16.384,0,0,1,1.542,1.131q1.028.722,1.543,1.132a18.339,18.339,0,0,0,1.646-2.366H1307.9V421.64h10.8a2.9,2.9,0,0,0-.1-.618l-.1-.2h3.806a3.3,3.3,0,0,1,.206.719q.2.618.617,1.646,1.13-.718,3.394-2.263-.1.1.206-.1l2.366,2.469q-.309.206-.823.514-2.367,1.542-3.6,2.263.308.413.617.925a41.6,41.6,0,0,0,3.7-2.365,2.213,2.213,0,0,1,.514-.412l2.366,2.572q-.515.308-1.337.925a23.756,23.756,0,0,1-2.675,1.646,19.064,19.064,0,0,0,4.114,2.058,28.034,28.034,0,0,0-1.542,3.6,10.521,10.521,0,0,1-1.954-1.029v5.451h-4.115l2.366.618-1.337,1.542h5.76v3.086H1307.28V441.6h5.555l-1.235-1.542,2.469-.618h-4.114v-5.348a17.445,17.445,0,0,1-2.263,1.131,25.141,25.141,0,0,0-1.234-3.6,24.371,24.371,0,0,0,4.012-1.955,21.833,21.833,0,0,0-1.852-1.542c-.411-.343-.755-.618-1.028-.823Zm4.731,5.555q-.72.72-1.44,1.337h11.828a8.977,8.977,0,0,1-1.44-1.337Zm9.566,5.862v-1.542h-10.388v1.542Zm-8.434,2.983,1.646,2.16h3.189l1.646-2.16Zm2.88-14.194a15.643,15.643,0,0,1-1.543,2.366h4.012a19.555,19.555,0,0,1-2.468-5.863Z" transform="translate(-1253.794 -420.714)" fill="#fff"/>
                        <path id="Path_1104" data-name="Path 1104" d="M1336.26,431.72h3.291v-1.543h-1.542v-1.029l-1.337,1.337q-.1-.616-.308-1.646-.309-1.439-.515-2.263a17.1,17.1,0,0,0,4.114-5.76l3.6.2-.514,1.029,2.88,2.88q.821.824,1.235,1.234l-2.057,2.778-.823-.926v2.16h-1.44v1.543h2.777V434.8h-2.777v4.629q.2-.718.719-2.057c.273-.89.479-1.543.618-1.954l2.057.617-1.44,4.32-1.954-.72v1.44l2.983-.308v1.646q-.1,1.13-.1,1.646-4.218.309-9.36.926l-.515-3.395a33.153,33.153,0,0,0,3.7-.206v-1.336l-2.057.513q-.517-2.056-1.337-4.423l2.057-.617q.718,1.955,1.336,3.806V434.8h-3.291Zm5.246-6.892a16.214,16.214,0,0,1-1.029,1.441c-.275.344-.48.617-.617.823h3.6Zm5.245,4.938,1.646-8.846h3.7l-.308,1.337h7.406l-.823,7.92h2.469v2.983H1359l2.16,2.469q-.617.413-1.748,1.131-1.133.826-1.749,1.235a13.282,13.282,0,0,0,3.5,2.777q-.309.517-1.029,1.646a14.923,14.923,0,0,1-1.029,1.543,15.25,15.25,0,0,1-3.908-4.114v2.365q.1,2.879-2.88,3.086h-1.336c-.823.067-1.476.1-1.955.1a16.662,16.662,0,0,0-.823-3.085h2.263a1,1,0,0,0,1.131-1.131v-1.029a19.626,19.626,0,0,0-1.852,1.131,32.618,32.618,0,0,1-2.88,1.543l-1.337-3.085q1.748-.927,6.069-3.189V433.16h-3.5q.514.413,1.543,1.131a13.726,13.726,0,0,0,1.542,1.029l-2.16,2.572q-1.646-1.439-3.085-2.469l2.057-2.263h-1.955v-2.983h8.64l.1-.925h-4.218l-.1.514Zm8.538-4.629h-4.012l-.206,1.234h4.114Zm-.1,8.331a9.809,9.809,0,0,0,.823,1.955,28.558,28.558,0,0,0,2.777-2.263h-3.6Z" transform="translate(-1256.755 -420.714)" fill="#fff"/>
                        <path id="Path_1105" data-name="Path 1105" d="M1375.42,435.926q2.468,4.732,3.6,6.891l-3.5,1.647-1.234-2.366a.8.8,0,0,0-.309.1,30.015,30.015,0,0,0-3.7,1.337q-1.029.41-2.88,1.235a.815.815,0,0,1-.308.1l-1.954-2.88a4.313,4.313,0,0,0,1.234-.411V421.732h11.521v14.194h-7.715v4.218l2.778-1.029-1.029-1.955Zm-5.246-10.7v1.954h3.909v-1.954Zm0,7.3h3.909v-2.057h-3.909Zm8.949-10.285h10.183v16.046q.309,4.218-3.7,4.217h-1.954q-.1-.41-.411-1.646-.208-1.027-.309-1.646v6.274h-3.806Zm3.806,3.908V438.8h1.441q1.234,0,1.131-1.132v-11.52Z" transform="translate(-1259.704 -420.806)" fill="#fff"/>
                        <path id="Path_1106" data-name="Path 1106" d="M1400.91,420.919v4.114h1.852v3.7h-1.852v3.291a13.4,13.4,0,0,1,1.748-.308q0,2.367.1,3.908a6.308,6.308,0,0,1-.926.206q-.617.208-.925.308V442q.1,2.981-2.674,3.085a19.788,19.788,0,0,1-2.983.206q-.413-2.881-.617-3.7h1.646c.617,0,.89-.342.823-1.029v-3.6q-.309.1-1.131.308-.722.208-1.132.308l-.308-4.32q.514-.1,1.441-.2a4.409,4.409,0,0,1,1.131-.206v-4.114h-2.16v-3.7h2.16V420.92Zm2.365,24.378V424.725h5.657v-3.908h3.909v3.908h5.76V445.3h-3.908v-1.44h-7.612v1.44Zm3.806-16.869v4.217h1.852v-4.217Zm0,7.714v4.218h1.852v-4.218Zm7.612-7.714h-1.852v4.217h1.852Zm-1.852,7.714v4.218h1.852v-4.218Z" transform="translate(-1262.665 -420.714)" fill="#fff"/>
                      </g>
                      <g id="Group_3102" data-name="Group 3102" transform="translate(0 42.701)">
                        <g id="Group_3101" data-name="Group 3101" transform="translate(23.276)">
                          <path id="Path_1107" data-name="Path 1107" d="M1273.3,468.26h6.688L1277.5,483.9h-6.7Zm4.276-7.152a3.748,3.748,0,0,1,2.539.882,2.549,2.549,0,0,1,.956,2.152,2.76,2.76,0,0,1-1.257,2.136,4.677,4.677,0,0,1-2.833.868,3.8,3.8,0,0,1-2.524-.868,2.466,2.466,0,0,1-.974-2.1,2.849,2.849,0,0,1,1.26-2.167,4.577,4.577,0,0,1,2.827-.9Z" transform="translate(-1270.804 -461.108)" fill="#fff"/>
                          <path id="Path_1108" data-name="Path 1108" d="M1284.31,461.624h8.856a31.336,31.336,0,0,1,4.911.526q3.115.527,2.823,6.1a11.018,11.018,0,0,1-1.094,4.351,7.977,7.977,0,0,1-2.83,3.189,9.759,9.759,0,0,1-5.359,1.223h-2.848l-1.075,6.936h-6.936Zm5.337,9.846h1.269a2.93,2.93,0,0,0,2-.665,2.424,2.424,0,0,0,.821-1.781q.1-1.826-2.1-1.826h-1.3Z" transform="translate(-1271.806 -461.16)" fill="#fff"/>
                          <path id="Path_1109" data-name="Path 1109" d="M1314.91,469.009h6.688l-2.491,15.637h-6.688l.35-1.951a4.857,4.857,0,0,1-4.525,2.446,4.594,4.594,0,0,1-3.959-1.862,7.917,7.917,0,0,1-1.184-5.18,11.15,11.15,0,0,1,2.539-6.779,6.947,6.947,0,0,1,5.455-2.776q2.849,0,3.539,2.2Zm-5.364,7.834-.026.5q-.124,2.354,1.906,2.353a2.281,2.281,0,0,0,1.861-.9,4.039,4.039,0,0,0,.8-2.385q.125-2.415-1.855-2.415a2.316,2.316,0,0,0-1.743.758,3.89,3.89,0,0,0-.939,2.089Z" transform="translate(-1274.055 -461.857)" fill="#fff"/>
                          <path id="Path_1110" data-name="Path 1110" d="M1337.12,461.624h6.688l-3.46,22.325h-6.75l.354-2.043-.416.867a4.018,4.018,0,0,1-1.627,1.208,5.532,5.532,0,0,1-2.238.464,4.791,4.791,0,0,1-4.079-1.939,7.836,7.836,0,0,1-1.274-5.227,10.708,10.708,0,0,1,2.579-6.669,7.2,7.2,0,0,1,5.593-2.73,5.38,5.38,0,0,1,1.979.341,2.661,2.661,0,0,1,1.267.929,1.532,1.532,0,0,1,.117.712Zm-6.272,14.521-.017.341a2.749,2.749,0,0,0,.456,1.858,1.739,1.739,0,0,0,1.471.682,2.339,2.339,0,0,0,1.862-.9,3.87,3.87,0,0,0,.831-2.353q.128-2.446-1.823-2.446a2.445,2.445,0,0,0-1.761.8,3.712,3.712,0,0,0-1.017,2.018Z" transform="translate(-1276.192 -461.16)" fill="#fff"/>
                          <path id="Path_1111" data-name="Path 1111" d="M1347.25,469.009h6.472l-.321,1.982a6.671,6.671,0,0,1,5.207-2.446q2.785,0,3.6,2.2a8.315,8.315,0,0,1,5.441-2.2,4.532,4.532,0,0,1,3.15,1.052,3.255,3.255,0,0,1,1.08,2.725l-.01.186-.366,2.261-1.539,9.877h-6.688l1.25-8.083.145-.989q.065-1.238-.987-1.239a1.473,1.473,0,0,0-.725.248,1.511,1.511,0,0,0-.569.526,3.222,3.222,0,0,0-.275.835q-.123.558-.212,1.084l-1.179,7.618h-6.706l1.3-8.3.139-.871a.994.994,0,0,0-1.06-1.142,1.17,1.17,0,0,0-1.084.5,3.553,3.553,0,0,0-.423.934,6.447,6.447,0,0,0-.169.859l-1.289,8.021h-6.674Z" transform="translate(-1278.253 -461.857)" fill="#fff"/>
                          <path id="Path_1112" data-name="Path 1112" d="M1377.9,468.26h6.688L1382.1,483.9h-6.7Zm4.276-7.152a3.75,3.75,0,0,1,2.539.882,2.549,2.549,0,0,1,.955,2.152,2.758,2.758,0,0,1-1.257,2.136,4.675,4.675,0,0,1-2.832.868,3.8,3.8,0,0,1-2.525-.868,2.465,2.465,0,0,1-.973-2.105,2.848,2.848,0,0,1,1.259-2.167,4.579,4.579,0,0,1,2.828-.9Z" transform="translate(-1281.34 -461.108)" fill="#fff"/>
                          <path id="Path_1113" data-name="Path 1113" d="M1387.85,469.012h6.689l-.331,2.168q.561-.65.824-.945a2.378,2.378,0,0,1,.583-.479,5.415,5.415,0,0,1,1.717-.852,6.966,6.966,0,0,1,2.092-.326,4.081,4.081,0,0,1,2.95,1.022,3.42,3.42,0,0,1,.969,2.787l-.061,1.177q-.127.65-.173.929l-1.616,10.155H1394.8l1.3-8.268.112-.959q.066-1.269-1.077-1.27a1.37,1.37,0,0,0-1.19.588,5.186,5.186,0,0,0-.649,2.075l-1.261,7.834h-6.674Z" transform="translate(-1282.342 -461.86)" fill="#fff"/>
                          <path id="Path_1114" data-name="Path 1114" d="M1408.4,468.26h6.689L1412.6,483.9h-6.689Zm4.276-7.152a3.75,3.75,0,0,1,2.54.882,2.549,2.549,0,0,1,.955,2.152,2.757,2.757,0,0,1-1.257,2.136,4.675,4.675,0,0,1-2.832.868,3.8,3.8,0,0,1-2.524-.868,2.464,2.464,0,0,1-.974-2.105,2.847,2.847,0,0,1,1.259-2.167,4.579,4.579,0,0,1,2.837-.9Z" transform="translate(-1284.412 -461.108)" fill="#fff"/>
                        </g>
                        <path id="Path_1115" data-name="Path 1115" d="M1263.95,471.338l.777-4.415h-1.955l1.754-4.38h-3.8l-1.768,4.38h-3.142l1.751-4.38H1253.8l-1.777,4.38h-3.49l-.745,4.415h2.443l-1.338,3.3h-3.236l-.745,4.415h2.188l-1.973,4.862h3.892l1.942-4.857h3.091l-1.958,4.853h3.871l1.94-4.847h3.454l.748-4.438h-2.428l1.32-3.3Zm-8.1,3.3h-3.111l1.319-3.3h3.123Z" transform="translate(-1244.921 -461.252)" fill="#fff"/>
                      </g>
                    </g>
                    <g id="Group_3115" data-name="Group 3115" transform="translate(3.406 87.809)">
                      <g id="Group_3113" data-name="Group 3113">
                        <rect id="Rectangle_168" data-name="Rectangle 168" width="21.676" height="21.419" fill="#fff"/>
                        <rect id="Rectangle_169" data-name="Rectangle 169" width="20.434" height="20.305" transform="translate(0.643 0.6)" fill="#009844"/>
                        <g id="Group_3104" data-name="Group 3104" transform="translate(2.351 1.722)">
                          <path id="Path_1116" data-name="Path 1116" d="M1251.39,581.259s-.242-1.11,1.11-1.11h14.865a.913.913,0,0,1,.869,1.061c-.1,1.014-1.689,15.831-1.689,15.831s.1.916-1.062.916h-3.089v.821h-5.164v-.852h-3.33s-1.158.031-1.158-.982Z" transform="translate(-1251.328 -580.102)" fill="#fff"/>
                          <path id="Path_1117" data-name="Path 1117" d="M1262.44,598.819h-5.257v-.853H1253.9a1.425,1.425,0,0,1-.934-.329.933.933,0,0,1-.271-.7l-1.351-15.679a1.027,1.027,0,0,1,.177-.8,1.192,1.192,0,0,1,.978-.365h14.865a1.08,1.08,0,0,1,.708.336.991.991,0,0,1,.207.776c-.1,1-1.672,15.683-1.689,15.831a.886.886,0,0,1-.216.638,1.146,1.146,0,0,1-.892.32h-3.042Zm-5.164-.093h5.072v-.82h3.135a1.061,1.061,0,0,0,.823-.289.812.812,0,0,0,.192-.577c.016-.158,1.594-14.838,1.69-15.839a.91.91,0,0,0-.184-.707,1.008,1.008,0,0,0-.64-.3H1252.5a1.107,1.107,0,0,0-.906.331.943.943,0,0,0-.157.723v.006l1.352,15.685a.849.849,0,0,0,.242.635,1.357,1.357,0,0,0,.869.3h3.378Z" transform="translate(-1251.322 -580.097)" fill="#fff"/>
                        </g>
                        <path id="Path_1118" data-name="Path 1118" d="M1263.43,590.061c.579-2.209,3.12-3.33,3.12-3.33V582.61c-3.173,1.278-6.5,3.929-7.226,7.46" transform="translate(-1249.778 -578.628)" fill="#e50012"/>
                        <path id="Path_1119" data-name="Path 1119" d="M1264.7,582.678a18.589,18.589,0,0,0-3.949,2.781,8.034,8.034,0,0,0-.92,1.1h-5.288l-.028-3.816v-.076Z" transform="translate(-1249.293 -578.633)" fill="#ef8200"/>
                        <g id="Group_3105" data-name="Group 3105" transform="translate(4.74 11.795)">
                          <path id="Path_1120" data-name="Path 1120" d="M1253.99,591.309v2.9h1.638v-.616h-.736v-.6h.7v-.507h-.687v-.525h.7v-.652Z" transform="translate(-1253.98 -591.299)" fill="#009844"/>
                          <path id="Path_1121" data-name="Path 1121" d="M1255.64,594.212h-1.656V591.3h1.635v.67h-.7v.506h.687V593h-.7v.579h.737Zm-1.638-.019h1.619v-.6h-.736v-.615h.7v-.488h-.687v-.543h.7v-.633H1254Z" transform="translate(-1253.979 -591.298)" fill="#009844"/>
                        </g>
                        <g id="Group_3106" data-name="Group 3106" transform="translate(8.518 11.795)">
                          <path id="Path_1122" data-name="Path 1122" d="M1258.19,591.309v2.9h1.638v-.616h-.736v-.6h.7v-.507h-.687v-.525h.7v-.652Z" transform="translate(-1258.181 -591.299)" fill="#009844"/>
                          <path id="Path_1123" data-name="Path 1123" d="M1259.84,594.212h-1.656V591.3h1.635v.67h-.7v.506h.686V593h-.7v.579h.735Zm-1.637-.019h1.619v-.6h-.736v-.615h.7v-.488h-.687v-.543h.7v-.633h-1.6Z" transform="translate(-1258.18 -591.298)" fill="#009844"/>
                        </g>
                        <g id="Group_3107" data-name="Group 3107" transform="translate(12.662 11.795)">
                          <path id="Path_1124" data-name="Path 1124" d="M1262.8,591.309v2.9h1.637v-.616h-.736v-.6h.7v-.507h-.687v-.525h.7v-.652Z" transform="translate(-1262.79 -591.299)" fill="#009844"/>
                          <path id="Path_1125" data-name="Path 1125" d="M1264.44,594.212h-1.656V591.3h1.635v.67h-.7v.506h.687V593h-.7v.579h.736Zm-1.637-.019h1.619v-.6h-.736v-.615h.7v-.488h-.687v-.543h.7v-.633h-1.6Z" transform="translate(-1262.789 -591.298)" fill="#009844"/>
                        </g>
                        <g id="Group_3108" data-name="Group 3108" transform="translate(6.681 11.774)">
                          <path id="Path_1126" data-name="Path 1126" d="M1256.15,594.182v-2.9h.918v2.252h.67v.646Z" transform="translate(-1256.139 -591.276)" fill="#009844"/>
                          <path id="Path_1127" data-name="Path 1127" d="M1257.74,594.19h-1.606v-2.915h.936v2.252h.67Zm-1.588-.018h1.569v-.628h-.669v-2.252h-.9Z" transform="translate(-1256.138 -591.275)" fill="#009844"/>
                        </g>
                        <g id="Group_3109" data-name="Group 3109" transform="translate(10.295 11.828)">
                          <path id="Path_1128" data-name="Path 1128" d="M1260.57,594.2h1.193l.562-2.853h-.651l-.38,1.84-.271-1.84h-.851Z" transform="translate(-1260.157 -591.336)" fill="#009844"/>
                          <path id="Path_1129" data-name="Path 1129" d="M1261.77,594.207h-1.209V594.2l-.4-2.864h.87v.008l.264,1.788.371-1.8h.67v.011Zm-1.193-.019h1.177l.558-2.834h-.632l-.38,1.833h-.018l-.27-1.832h-.833Z" transform="translate(-1260.156 -591.335)" fill="#009844"/>
                        </g>
                        <path id="Path_1130" data-name="Path 1130" d="M1265.02,594.754" transform="translate(-1250.352 -579.851)" fill="none"/>
                        <g id="Group_3110" data-name="Group 3110" transform="translate(14.631 11.781)">
                          <path id="Path_1131" data-name="Path 1131" d="M1264.99,594.215v-2.826h.888v.178a1.082,1.082,0,0,1,.724-.273c.452,0,.633.247.633.428v2.511h-.875v-2.005c-.007-.306-.482-.218-.482,0v1.988Z" transform="translate(-1264.979 -591.284)" fill="#009844"/>
                          <path id="Path_1132" data-name="Path 1132" d="M1267.24,594.24h-.9v-2.014a.185.185,0,0,0-.2-.188h0c-.123,0-.255.077-.255.188v2h-.905v-2.844h.905v.165a1.112,1.112,0,0,1,.714-.261c.471,0,.643.262.643.437Zm-.876-.018h.857v-2.5c0-.168-.166-.418-.624-.418a1.078,1.078,0,0,0-.717.27l-.016.016v-.19H1265v2.8h.869v-1.979c0-.121.141-.2.273-.207h0a.2.2,0,0,1,.223.207Z" transform="translate(-1264.978 -591.283)" fill="#009844"/>
                        </g>
                        <g id="Group_3111" data-name="Group 3111" transform="translate(8.55 15.08)">
                          <path id="Path_1133" data-name="Path 1133" d="M1262.9,594.961h-4.313a25.389,25.389,0,0,0-.356,4.929h4.461a39.657,39.657,0,0,1,.208-4.929Z" transform="translate(-1258.216 -594.952)" fill="#e50012"/>
                          <path id="Path_1134" data-name="Path 1134" d="M1262.7,599.9h-4.479v-.009a25.682,25.682,0,0,1,.355-4.931v-.007h4.333v.011a39.887,39.887,0,0,0-.208,4.927Zm-4.461-.018h4.442a39.581,39.581,0,0,1,.207-4.911h-4.3a25.839,25.839,0,0,0-.353,4.909Z" transform="translate(-1258.215 -594.951)" fill="#e50012"/>
                        </g>
                        <g id="Group_3112" data-name="Group 3112" transform="translate(13.524 15.304)">
                          <path id="Path_1135" data-name="Path 1135" d="M1264.42,596.478a.606.606,0,1,0-.606-.6.606.606,0,0,0,.606.6Z" transform="translate(-1263.754 -595.207)" fill="#fff"/>
                          <path id="Path_1136" data-name="Path 1136" d="M1264.41,596.532a.666.666,0,1,1,.666-.666.666.666,0,0,1-.666.666Zm0-1.211a.545.545,0,1,0,.387.16A.545.545,0,0,0,1264.41,595.321Z" transform="translate(-1263.747 -595.2)" fill="#009844"/>
                        </g>
                        <path id="Path_1137" data-name="Path 1137" d="M1264.28,595.573h.265a.2.2,0,0,1,.088.016.117.117,0,0,1,.062.117.125.125,0,0,1-.044.111.213.213,0,0,1-.12.031h-.251Zm0,.708v-.343h.247a.258.258,0,0,1,.1.014.112.112,0,0,1,.058.106l.006.133a.434.434,0,0,0,.006.064.08.08,0,0,0,.008.026h.133v-.018a.067.067,0,0,1-.035-.049.344.344,0,0,1-.007-.068v-.108a.189.189,0,0,0-.027-.1.158.158,0,0,0-.071-.05.2.2,0,0,0,.113-.192.189.189,0,0,0-.113-.189.361.361,0,0,0-.15-.027h-.371v.8Z" transform="translate(-1250.266 -579.924)" fill="#009844"/>
                      </g>
                      <g id="Group_3114" data-name="Group 3114" transform="translate(28.371 1.253)">
                        <path id="Path_1138" data-name="Path 1138" d="M1280.33,581.242l1.941-1.32a14.175,14.175,0,0,1,1.631,1.942,12.613,12.613,0,0,0,1.087-1.786l1.553,1.165v-.776H1298.5v4.893h-7.534a8.224,8.224,0,0,0-.466.7h8.077v6.14q0,2.1-.077,3.34,0,2.8-2.719,2.8h-2.563q-.079-.233-.311-1.243-.156-.622-.233-.932c.362,0,.933.025,1.709.077h.7q.854,0,.932-.544l-1.864.388c-.1-.051-.156-.181-.156-.388q-.543.078-1.63.156-4.194.388-5.747.544l-.389-2.253q1.864,0,3.728-.077v-1.01h-3.106v-3.107a4.091,4.091,0,0,0-.388-.543q-.545-.62-.777-.932a42.975,42.975,0,0,1,.156,5.437q.233,4.349-2.874,4.272a13.3,13.3,0,0,1-1.786.077,15.335,15.335,0,0,0-.544-2.563q.854.078,1.476.078,1.242,0,1.243-1.787,0-1.241-.077-2.407a9.244,9.244,0,0,1-2.1,1.942q-.233-.621-.932-2.719a8.841,8.841,0,0,0,2.873-2.719q-.078-.387-.156-.932a2.072,2.072,0,0,1-.077-.466,5.462,5.462,0,0,1-1.4,1.243q-.7-1.4-1.165-2.486a16.647,16.647,0,0,0,1.786-1.553,13.984,13.984,0,0,0-1.782-2.647Zm6.213,4.117v-3.03a1.639,1.639,0,0,1-.31.389,13.9,13.9,0,0,1-1.165,1.631,20.364,20.364,0,0,1,.544,3.65,9.845,9.845,0,0,0,2.485-2.64Zm2.408,2.8-.7.7h1.709v-.7Zm-.078-4.66h1.01v-1.166h-1.01Zm.078,7.067v.854h1.009v-.854Zm3.029-8.233V583.5h1.01v-1.166Zm4.116,5.826h-3.806v.7h3.107v4.194h-.389a13.214,13.214,0,0,1,.544,1.32q.309.855.466,1.32v-.31q.077-1.165.077-2.719Zm-2.8,2.407h-1.01v.854h1.01Zm-.077,2.8,1.164-.31h-2.1v.932h1.087a1.108,1.108,0,0,0-.14-.63Zm2.873-11.029h-1.009V583.5h1.009Z" transform="translate(-1280.257 -579.611)" fill="#fff"/>
                        <path id="Path_1139" data-name="Path 1139" d="M1318.83,586.653l1.553,2.33a6.63,6.63,0,0,1-.7.388q-.622.31-2.019.932a7.521,7.521,0,0,0,3.806,4.66,17.99,17.99,0,0,0-1.476,1.786,4.466,4.466,0,0,0-.544.622,10.765,10.765,0,0,1-4.271-5.981l-.544.233a13.23,13.23,0,0,1,.311,2.874q.075,3.65-3.184,3.573-1.244.076-2.874.077-.233-1.089-.543-2.174-2.176.854-4.816,1.709a20.961,20.961,0,0,0-1.165-2.408,26.766,26.766,0,0,0,9.087-3.65l-.155-.466a38.542,38.542,0,0,1-7.611,3.107,26.157,26.157,0,0,0-1.166-2.486,24.308,24.308,0,0,0,7.612-2.486l-.31-.389a35.588,35.588,0,0,1-5.825,1.787,16.738,16.738,0,0,0-.854-1.787c-.156-.31-.26-.516-.31-.62a26.227,26.227,0,0,0,7.068-1.554h-3.262v-2.174h10.64v2.174h-2.8q-.311.157-.854.466-.778.39-1.166.621a9.925,9.925,0,0,1,1.087,1.476Q1316.19,588.052,1318.83,586.653Zm-8.466-6.99h3.107v1.476h7.378v4.893h-3.107V583.7h-11.728v2.33h-3.03v-4.893h7.378ZM1312,594.032a21.162,21.162,0,0,1-3.184,1.709,2.715,2.715,0,0,0,.932,0h.621q1.786.078,1.631-1.321Z" transform="translate(-1282.484 -579.585)" fill="#fff"/>
                        <path id="Path_1140" data-name="Path 1140" d="M1328.76,594.826q-1.01,2.1-1.942,3.65l-2.252-1.164q.774-1.322,1.786-3.263Zm-3.572-1.01v-13.2h7.223v13.2Zm2.64-10.718v1.165h2.02V583.1Zm0,3.495v1.166h2.02v-1.166Zm0,3.5v1.242h2.02v-1.242Zm15.067-4.583v2.8a13.03,13.03,0,0,1-1.864,5.514,21.7,21.7,0,0,0,2.641,1.942q-.778,1.242-1.476,2.486-1.01-.777-2.641-2.1a.806.806,0,0,1-.31-.156,20.23,20.23,0,0,1-3.65,2.486l-1.166-1.941a11.035,11.035,0,0,1-1.01,1.864l-1.009-1.166-1.864.854q-.7-1.554-1.631-3.262l2.33-.854.777,1.4a13.761,13.761,0,0,0,1.32-6.834v-7.922h9.63v2.719h-6.912v2.174Zm-5.281,8.233a15.782,15.782,0,0,1-1.553-3.65,14.534,14.534,0,0,1-1.087,5.436,12.3,12.3,0,0,0,2.636-1.79Zm-1.553-5.049v.621l1.942-1.087h-1.942Zm2.1-.466a15.919,15.919,0,0,0,1.165,3.262,11.521,11.521,0,0,0,1.01-3.262Z" transform="translate(-1284.719 -579.68)" fill="#fff"/>
                        <path id="Path_1141" data-name="Path 1141" d="M1364.06,588.741h-5.127v.854h5.981v2.019h-13.281v.466H1348.6v-4.815a8.884,8.884,0,0,1-.777.854l-.621.621q-.157-1.009-.544-2.951a3.3,3.3,0,0,1-.077-.621,14.988,14.988,0,0,0,3.573-5.514l3.262.233a10.908,10.908,0,0,1-.7,1.553h3.262l.621-1.864,3.107.388-.466,1.476h5.436v2.1h-5.747v.777h5.127v1.864h-5.127v.776h5.127Zm-15.456,9.553v-5.98h15.533v5.98h-3.107v-.621h-9.32v.621Zm3.029-14.757v.777h4.194v-.777Zm0,2.641v.776h4.194v-.776Zm0,2.563v.854h4.194v-.854Zm.077,5.825v1.01h9.32v-1.01Z" transform="translate(-1286.938 -579.576)" fill="#fff"/>
                      </g>
                    </g>
                  </g>
                  <g id="Group_3130" data-name="Group 3130" transform="translate(1230.847 -230.909)">
                    <path id="Path_1158" data-name="Path 1158" d="M59.089,820.243a3.993,3.993,0,1,1,3.993-3.993,3.993,3.993,0,0,1-3.993,3.993Zm0-7.929a3.936,3.936,0,1,0,3.936,3.936,3.936,3.936,0,0,0-3.936-3.936Z" transform="translate(-40.506)" fill="none" stroke="#fff" stroke-miterlimit="10" stroke-width="1"/>
                    <path id="Path_1159" data-name="Path 1159" d="M-5.975,888.514a2.955,2.955,0,0,1-2.951-2.951,2.955,2.955,0,0,1,2.951-2.951,2.954,2.954,0,0,1,2.951,2.951,2.955,2.955,0,0,1-2.951,2.951Zm0-5.86a2.912,2.912,0,0,0-2.909,2.909,2.912,2.912,0,0,0,2.909,2.909,2.912,2.912,0,0,0,2.909-2.909,2.912,2.912,0,0,0-2.909-2.91Z" transform="translate(0 -44.513)" fill="none" stroke="#fff" stroke-miterlimit="10" stroke-width="1"/>
                  </g>
                </g>
              </g>
              <path id="Path_1022" data-name="Path 1022" d="M1761.02,116.258a11.9,11.9,0,1,1-11.9-11.874,11.9,11.9,0,0,1,11.9,11.874" transform="translate(-1648.329 519.034)" fill="#101820"/>
              <path id="Path_1023" data-name="Path 1023" d="M1749.12,126.164a9.736,9.736,0,0,1-9.7-9.747h1.245a8.458,8.458,0,1,0,16.916,0h1.245a9.736,9.736,0,0,1-9.706,9.747Z" transform="translate(-1648.329 519.034)" fill="#fff"/>
              <path id="Path_1024" data-name="Path 1024" d="M1742.98,118.838a6.175,6.175,0,0,0,4.587-2.9c.915-1.51,1.328-4.092.279-5.659a1.628,1.628,0,0,0-2.39-.377,4.322,4.322,0,0,0-1.294,2.512c-.434,1.873-.444,4.7,1.354,5.727a5.265,5.265,0,0,0,5.022-.312,7.3,7.3,0,0,0,3.331-3.962c.516-1.451.71-3.79-.912-4.475a2.449,2.449,0,0,0-2.587.572,4.843,4.843,0,0,0-1.06,2.452c-.377,1.808-.54,4.691,1.06,5.868,1.753,1.29,4.431.293,5.9-1.047a.818.818,0,0,0-1.1-1.209,4.076,4.076,0,0,1-3.392,1.044c-1.26-.247-1.13-1.868-1.1-2.956.027-.865.151-2.571.93-3.028,1.314-.77,1.115,1.1.9,1.883a5.461,5.461,0,0,1-4.659,3.951,2.923,2.923,0,0,1-1.471-.213,1.853,1.853,0,0,1-.855-1.676,6.641,6.641,0,0,1,.114-2.047c.068-.317.364-1.8.836-1.738.41.053.412,1.327.4,1.675a4.386,4.386,0,0,1-.6,2.058,4.523,4.523,0,0,1-3.3,2.152c-.984.125-1,1.837,0,1.709" transform="translate(-1648.329 519.034)" fill="#fff"/>
              <path id="Path_1026" data-name="Path 1026" d="M1761.65,79.55l1.465,3.96,2.31-3.534.547,4.186,3.038-2.932-.4,4.2,3.614-2.182-1.323,4.009,4.009-1.323-2.182,3.614,4.2-.4L1774,92.191l4.186.547-3.534,2.31,3.96,1.465-3.96,1.465,3.534,2.31-4.186.547,2.932,3.038-4.2-.4,2.182,3.614-4.009-1.323,1.323,4.009-3.614-2.182.4,4.2-3.038-2.932-.547,4.186-2.31-3.534-1.465,3.96-1.465-3.96-2.31,3.534-.547-4.186-3.038,2.932.4-4.2-3.614,2.182,1.323-4.009-4.009,1.323,2.182-3.614-4.2.4,2.932-3.038-4.186-.547,3.534-2.31-3.96-1.465,3.96-1.465-3.534-2.31,4.186-.547-2.932-3.038,4.2.4-2.182-3.614,4.009,1.323-1.323-4.009,3.614,2.182-.4-4.2,3.038,2.932.547-4.186,2.31,3.534Z" transform="translate(-1648.329 519.034)" fill="#fff"/>
              <g id="Group_2991" data-name="Group 2991" transform="translate(-1648.329 519.034)">
                <path id="Path_1028" data-name="Path 1028" d="M1762.01,105.8a7.8,7.8,0,0,1-7.789-7.788h1.066a6.723,6.723,0,0,0,13.425.532h-9.4V90.991h-5.339V89.925h6.4v7.557h9.422v.533A7.8,7.8,0,0,1,1762.01,105.8Z" fill="#101820"/>
              </g>
              <g id="Group_2992" data-name="Group 2992" transform="translate(-1648.329 519.034)">
                <rect id="Rectangle_149" data-name="Rectangle 149" width="5.871" height="1.065" transform="translate(1763.465 89.925)" fill="#101820"/>
              </g>
            </g>
          </g>
          <path id="Path_1158-2" data-name="Path 1158" d="M60.571,823.207a5.475,5.475,0,1,1,5.475-5.475,5.475,5.475,0,0,1-5.475,5.475Zm0-10.872a5.4,5.4,0,1,0,5.4,5.4A5.4,5.4,0,0,0,60.571,812.335Z" transform="translate(2327.42 200.423)" fill="none" stroke="#fff" stroke-miterlimit="10" stroke-width="1"/>
        </g>
        <g id="Group_3132" data-name="Group 3132" transform="translate(596 -420)">
          <path id="Path_1023-2" data-name="Path 1023" d="M1749.123,126.164a9.736,9.736,0,0,1-9.7-9.747h1.245a8.458,8.458,0,0,0,16.915,0h1.246A9.736,9.736,0,0,1,1749.123,126.164Z" transform="translate(285.671 401.034)" fill="#fff"/>
          <path id="Path_1024-2" data-name="Path 1024" d="M1742.985,118.838a6.175,6.175,0,0,0,4.587-2.9c.915-1.51,1.328-4.092.279-5.659a1.628,1.628,0,0,0-2.39-.377,4.322,4.322,0,0,0-1.294,2.512c-.434,1.873-.444,4.7,1.354,5.727a5.265,5.265,0,0,0,5.022-.312,7.3,7.3,0,0,0,3.331-3.962c.516-1.451.71-3.79-.912-4.475a2.449,2.449,0,0,0-2.587.572,4.841,4.841,0,0,0-1.06,2.452c-.377,1.808-.54,4.691,1.06,5.868,1.753,1.29,4.431.293,5.9-1.047a.818.818,0,0,0-1.1-1.209,4.076,4.076,0,0,1-3.392,1.044c-1.26-.247-1.13-1.868-1.095-2.956.027-.865.151-2.571.93-3.028,1.314-.77,1.115,1.1.9,1.883a5.461,5.461,0,0,1-4.659,3.951,2.923,2.923,0,0,1-1.471-.213,1.853,1.853,0,0,1-.855-1.676,6.634,6.634,0,0,1,.114-2.047c.068-.317.364-1.8.836-1.738.41.053.412,1.327.4,1.675a4.387,4.387,0,0,1-.6,2.058,4.522,4.522,0,0,1-3.3,2.152c-.984.125-1,1.837,0,1.709" transform="translate(285.671 401.034)" fill="#fff"/>
          <path id="Path_1025" data-name="Path 1025" d="M1749.123,128.388a12.13,12.13,0,1,1,12.13-12.13A12.144,12.144,0,0,1,1749.123,128.388Zm0-23.747a11.617,11.617,0,1,0,11.663,11.617A11.654,11.654,0,0,0,1749.123,104.641Z" transform="translate(285.671 401.034)" fill="#fff"/>
          <path id="Path_1160" data-name="Path 1160" d="M1749.123,128.388a12.13,12.13,0,1,1,12.13-12.13A12.144,12.144,0,0,1,1749.123,128.388Zm0-23.747a11.617,11.617,0,1,0,11.663,11.617A11.654,11.654,0,0,0,1749.123,104.641Z" transform="translate(285.671 401.034)" fill="#fff"/>
        </g>
      </g>
      <g id="Group_3134" data-name="Group 3134" transform="translate(2259.231 -495.757)">
        <path id="Path_1142" data-name="Path 1142" d="M668.727,399.376a4.615,4.615,0,1,1,4.615-4.615A4.62,4.62,0,0,1,668.727,399.376Zm0-8.439a3.824,3.824,0,1,0,3.824,3.824A3.829,3.829,0,0,0,668.727,390.936Z" transform="translate(-121.84 -17)" fill="#fff"/>
        <g id="Group_3119" data-name="Group 3119" transform="translate(494.418 454.959)">
          <circle id="Ellipse_14" data-name="Ellipse 14" cx="15.704" cy="15.704" r="15.704" transform="translate(0)" fill="#b21d2c"/>
          <g id="Group_3118" data-name="Group 3118" transform="translate(6.49 5.442)">
            <path id="Path_1143" data-name="Path 1143" d="M502.8,513.485a7.853,7.853,0,0,1-1.065,1.01,6.483,6.483,0,0,0-.619-.874A5.929,5.929,0,0,0,503,511.463l.938.31a6.346,6.346,0,0,1-.428.756h5.728v.956Zm-1.512,6.2a8.844,8.844,0,0,0,1.02-1.776l1.047.273a11.651,11.651,0,0,1-1.011,1.93Zm7.112-4.08v1.156h1.093v.966h-8.123v-.966h1.248v-1.156h-.974v-.965h.974v-.82h.965v.82h.619v-.82h.9v.82h.71v-.82h.9v.82h.683v-.82h1v.82h.892v.965Zm-4.817,1.156h.619v-1.156h-.619Zm1.275,1.4a10.5,10.5,0,0,1,.228,1.7l-1.066.155a10.694,10.694,0,0,0-.173-1.748Zm.246-2.559v1.156h.71v-1.156Zm1.612,2.486a8.921,8.921,0,0,1,.537,1.685l-1.083.209a9.237,9.237,0,0,0-.474-1.73Zm.683-2.486h-.683v1.156h.683Zm1.138,2.231a12.847,12.847,0,0,1,1.066,1.793l-1.066.465a13.038,13.038,0,0,0-.993-1.858Z" transform="translate(-501.113 -511.463)" fill="#fff"/>
            <path id="Path_1144" data-name="Path 1144" d="M532.675,516.971v.446h1.612v2.759h-.947v-.337h-1.976v.346h-.9v-2.768h1.275v-.446h-1.266v-.738h1.266v-.41h-1.448a8.3,8.3,0,0,1-1.029,4.353,3.552,3.552,0,0,0-.811-.528,5.081,5.081,0,0,0,.765-2.113l-.592.628c-.11-.346-.364-.974-.556-1.4V520.2h-.847v-3.487a7.908,7.908,0,0,1-.82,2.486,5.226,5.226,0,0,0-.391-.993,7.175,7.175,0,0,0,.673-2.085l.538.2v-.6h-1.065v-1.011h1.065V511.7h.847v2.458a14.838,14.838,0,0,0,.446-1.9l.756.2c-.2.656-.419,1.43-.6,1.912l-.6-.182v.528h.984v1.011h-.984v.656l.383-.264c.146.2.629,1.038.783,1.32a13.922,13.922,0,0,0,.118-1.985v-2.932h2.086c-.055-.228-.109-.464-.173-.665l1.1-.192c.1.264.191.583.264.856h1.94v.91h-4.28v1.666h1.448v-.418H530.5v-.738h1.238v-.419h.938v.419H534.2v1.075h.391v.883H534.2v1.074Zm-6.174-2.6a14.444,14.444,0,0,0-.373-1.958l.646-.155a15.239,15.239,0,0,1,.41,1.949Zm6.839,3.907h-1.976v.783h1.976Zm-.665-3.178h.637v-.418h-.637Zm0,1.138h.637v-.41h-.637Z" transform="translate(-516.927 -511.589)" fill="#fff"/>
            <path id="Path_1145" data-name="Path 1145" d="M501.546,540.858h4.335v.9h-1.138v.892h1.084v6.211h-.874v-.455h-2.458v.583h-.829v-6.338h1.02v-.892h-1.148Zm3.406,6.711V545.5h-.382c-.474,0-.61-.155-.61-.765v-1.193h-.41v.665a2.15,2.15,0,0,1-.6,1.639,2.365,2.365,0,0,0-.455-.382v2.1Zm-2.458-4.025v1.876a1.528,1.528,0,0,0,.455-1.211v-.665Zm.273,2.613H504.7v.82h-1.931Zm1.139-4.4h-.383v.892h.383Zm1.047,1.785h-.391v1.174c0,.146.018.155.091.155h.182c.073,0,.1,0,.118-.018Zm3.634,4.353c.318,0,.374-.228.419-1.43a3.279,3.279,0,0,0,.965.428c-.109,1.539-.391,2-1.293,2h-1.2c-.983,0-1.293-.319-1.293-1.412V543.8h2.395v-1.84h-2.431v-1.029h3.479v3.9h-2.368v2.65c0,.355.046.419.374.419Z" transform="translate(-501.382 -530.135)" fill="#fff"/>
            <path id="Path_1146" data-name="Path 1146" d="M530.019,542.226c-.028.364-.046.729-.091,1.093h3.906a4.525,4.525,0,0,1-.036.474c-.164,2.468-.356,3.479-.729,3.87a1.362,1.362,0,0,1-.974.428,12.751,12.751,0,0,1-1.575,0,2.371,2.371,0,0,0-.382-1.065c.619.064,1.256.073,1.53.073a.633.633,0,0,0,.446-.119c.237-.2.4-.984.528-2.613h-2.868a5.414,5.414,0,0,1-2.623,3.889,3.36,3.36,0,0,0-.792-.9c2.186-1.156,2.359-3.205,2.45-5.127h-2.295v-1.065h3.843c-.146-.355-.364-.811-.547-1.175l1.066-.4a10.232,10.232,0,0,1,.656,1.3l-.628.273h3.734v1.065Z" transform="translate(-517.149 -529.326)" fill="#fff"/>
          </g>
        </g>
        <g id="Group_3122" data-name="Group 3122" transform="translate(566.604 401.381)">
          <path id="Path_1147" data-name="Path 1147" d="M718.283,434.261a6.658,6.658,0,1,1,6.658-6.657A6.665,6.665,0,0,1,718.283,434.261Zm0-12.818a6.161,6.161,0,1,0,6.161,6.161A6.168,6.168,0,0,0,718.283,421.443Z" transform="translate(-700.899 -410.221)" fill="#fff"/>
          <circle id="Ellipse_15" data-name="Ellipse 15" cx="13.879" cy="13.879" r="13.879" transform="translate(19.406 5.337)" fill="#238bc0"/>
          <g id="Group_3121" data-name="Group 3121" transform="translate(25.651 10.725)">
            <g id="Group_3120" data-name="Group 3120">
              <path id="Path_1148" data-name="Path 1148" d="M784.473,455.37c-.016-.1-.041-.217-.065-.346a9.882,9.882,0,0,0-2.076.387c-.049-.169-.193-.6-.3-.837.2-.048.378-.225.628-.523.1-.113.282-.346.507-.668a3.108,3.108,0,0,0-.9.177,7.789,7.789,0,0,0-.282-.789c.161-.049.3-.2.459-.443a9.18,9.18,0,0,0,.958-1.98l.829.346a11.5,11.5,0,0,1-1.079,1.923l.531-.04a10.818,10.818,0,0,0,.539-1.046l.789.483a14.521,14.521,0,0,1-1.642,2.4l.846-.1c-.057-.217-.129-.434-.194-.628l.684-.217a11.615,11.615,0,0,1,.5,1.658Zm-1.344.419a9.591,9.591,0,0,1-.37,2.06,5.1,5.1,0,0,0-.749-.274,7.087,7.087,0,0,0,.338-1.907Zm.821-.137a15.564,15.564,0,0,1,.217,1.658l-.732.145a14.667,14.667,0,0,0-.169-1.666Zm.8-.25a10.753,10.753,0,0,1,.37,1.224l-.676.241a9.356,9.356,0,0,0-.346-1.256Zm4.8,1.433v.877h-4.6v-.877h1.819v-1.111h-1.449v-.853h3.9v.853h-1.489v1.111Zm-2.9-4.942c-.242.419-.515.87-.773,1.248a8.62,8.62,0,0,1,.829,1.288l-.765.3a8.166,8.166,0,0,0-.95-1.569,12.237,12.237,0,0,0,.846-1.457Zm2.809-.322h-4.338v-.853h4.338Zm-2.149,3.123a8.49,8.49,0,0,0-.974-1.553,12.7,12.7,0,0,0,.853-1.425l.805.185c-.242.41-.523.861-.773,1.231a9.556,9.556,0,0,1,.845,1.248Zm1.417.032a8.051,8.051,0,0,0-1.063-1.569,12.46,12.46,0,0,0,.885-1.457l.821.193c-.249.427-.539.87-.805,1.248a8.832,8.832,0,0,1,.918,1.256Z" transform="translate(-781.97 -450.348)" fill="#fff"/>
              <path id="Path_1149" data-name="Path 1149" d="M811.726,456.061h-2.318a22.542,22.542,0,0,1,2.165,1.183l-.885.644a16.27,16.27,0,0,0-2.165-1.3l.58-.531h-2.382l.757.5A10.034,10.034,0,0,1,805,457.912a6.3,6.3,0,0,0-.756-.692,8.761,8.761,0,0,0,2.261-1.159h-2.27v-.9h.8v-3.839h1.666v-.95h.894v.95h.764v-.95h.91v.95H811v3.839h.724Zm-5.771-3.855v1h.74v-1Zm0,2.954h.74v-1.071h-.74Zm1.634-2.954v1h.764v-1Zm.764,1.883h-.764v1.071h.764Zm.91-1.883v1h.773v-1Zm0,2.954h.773v-1.071h-.773Z" transform="translate(-796.101 -450.363)" fill="#fff"/>
              <path id="Path_1150" data-name="Path 1150" d="M783.608,478.611a10.707,10.707,0,0,1-.821,4.66,3.755,3.755,0,0,0-.846-.475,9.167,9.167,0,0,0,.724-4.185v-2.326h6.713v.869h-5.771Zm1.932,2.793a11.248,11.248,0,0,1-1.368,1.746,7.273,7.273,0,0,0-.8-.515,6.553,6.553,0,0,0,1.264-1.521Zm1.4-.532v1.634c0,.435-.081.668-.386.8a3.347,3.347,0,0,1-1.288.137A3.218,3.218,0,0,0,785,482.6c.354.008.749.008.853.008.12,0,.153-.024.153-.121v-1.61H784.14v-3.139h1.424a4.191,4.191,0,0,0,.25-.571l1.151.137c-.1.145-.193.3-.29.434h2.157v3.139Zm-1.868-1.907h2.769v-.515h-2.769Zm0,1.191h2.769v-.523h-2.769Zm3.01.95c.427.483,1.055,1.175,1.368,1.61l-.821.467c-.281-.427-.877-1.151-1.311-1.682Z" transform="translate(-781.942 -466.824)" fill="#fff"/>
              <path id="Path_1151" data-name="Path 1151" d="M805.772,480.932v.644H804.9v-5.449h2.415v4.805Zm0-3.888V480h.676v-2.954Zm4.693,2.406a5.909,5.909,0,0,0,1.763,2.222,4.515,4.515,0,0,0-.708.8,6.655,6.655,0,0,1-1.3-1.739v2.2h-.966v-2.254a5.506,5.506,0,0,1-1.682,1.779,4.424,4.424,0,0,0-.652-.757A5.027,5.027,0,0,0,809,479.451h-1.473v-.909h1.731v-1h-1.473v-.909h1.473v-1.143h.966v1.143h1.65v.909h-1.65v1h1.907v.909Z" transform="translate(-796.522 -466.319)" fill="#fff"/>
            </g>
          </g>
        </g>
      </g>
    </g>
    <g id="Group_3138-2" data-name="Group 3138" transform="translate(2448.806 -531.337)">
      <g id="Group_3128" data-name="Group 3128" transform="translate(131.13 422.97)">
        <ellipse id="Ellipse_16" data-name="Ellipse 16" cx="5.295" cy="5.292" rx="5.295" ry="5.292" transform="translate(0.058 0.06)" fill="#fff"/>
        <path id="Path_1155" data-name="Path 1155" d="M136.483,458.268a5.352,5.352,0,1,1,5.352-5.353A5.359,5.359,0,0,1,136.483,458.268Zm0-10.584a5.232,5.232,0,1,0,5.237,5.232A5.241,5.241,0,0,0,136.483,447.684Z" transform="translate(-131.13 -447.563)" fill="#101820"/>
        <path id="Path_1156" data-name="Path 1156" d="M143.584,455.135c0,.015.008.031.012.046a3.692,3.692,0,0,1-1.374,4.046c-1.6,1.178-3.932,1.182-7.15,2.193l-.016,0a5.307,5.307,0,0,0,8.527-6.289Z" transform="translate(-133.778 -452.668)" fill="none"/>
        <g id="Group_3127" data-name="Group 3127" transform="translate(1.095 1.121)">
          <path id="Path_1157" data-name="Path 1157" d="M143.369,453.447a3.7,3.7,0,0,0-.154-1.051A5.315,5.315,0,0,0,141.928,451a11.02,11.02,0,0,1-7.437,7.377c.064.087.131.171.2.253,3.218-1.011,5.55-1.015,7.15-2.193A3.714,3.714,0,0,0,143.369,453.447Z" transform="translate(-134.491 -451.004)" fill="#101820"/>
        </g>
      </g>
    </g>
  </g>
</svg>
