<svg xmlns="http://www.w3.org/2000/svg" width="184.385" height="56.506" viewBox="0 0 184.385 56.506">
  <g id="Group_3133" data-name="Group 3133" transform="translate(-1322 -17.425)">
    <g id="Group_3092" data-name="Group 3092" transform="translate(1396.2 17.425)">
      <g id="Group_3074" data-name="Group 3074">
        <path id="Path_1069" data-name="Path 1069" d="M1402.934,18.456l9.694-.015c.057,0,.04.316,0,.316l-2,0s-.561-.026-.394.315c.034.069,6.881,20.558,6.881,20.558s.118.352.216.393c0,0,6.023-20.592,6.03-20.611.061-.2.275-.662-.1-.661l-2.189,0c-.039,0-.039-.314,0-.314l5.217-.008c.038,0,.039.314,0,.314l-1.944,0c-.532-.011-.535.17-.629.472-.049.154-8.388,28.914-8.388,28.914s-.038-.125-.07-.234c-3.562-11.279-9.091-26.966-9.527-28.638-.131-.5-.2-.487-.465-.484l-2.335,0c-.068,0-.06-.327,0-.327" transform="translate(-1402.886 -17.508)" fill="#fff"/>
        <path id="Path_1070" data-name="Path 1070" d="M1436.732,48.373c5.657.013,11.768-6.888,11.769-15.414,0-8.929-5.894-15.282-11.723-15.325-5.963-.045-11.674,7.169-11.661,15.362.013,8.473,5.431,15.365,11.615,15.377m-6.7-15.543c-.013-8.229,1.412-14.953,6.716-14.959,5.7-.007,6.833,6.992,6.846,14.939.013,8.227-1.064,15.324-6.752,15.327-6.106,0-6.8-6.659-6.81-15.307" transform="translate(-1404.724 -17.442)" fill="#fff"/>
        <path id="Path_1071" data-name="Path 1071" d="M1466.833,35.62l2.215,0s.41-.047.407.172l.011,6.963c.008,5.361-4.846,5.428-6.219,5.259-5.075-.624-5.2-12.15-5.231-15.178-.081-8.227,1.082-15.394,6.189-15.117,6.065.329,7.665,9.884,7.763,10.312.2.081.2-.1.2-.1l0-10.427s-.043-.088-.161.033l-.15.164c-2.678,3.021-4.027-.132-7.926-.265-4.805-.161-10.76,7.172-10.825,15.624-.064,8.5,5.023,15.049,10.573,15.274,3.009.122,2.943-.8,6.653-2.072a2.434,2.434,0,0,1,3.425,1.6c.144.105.156-.08.156-.08l-.019-11.956c0-.237.3-.2.3-.2l2.047,0c.052,0,.051-.329,0-.329l-9.42.015c-.068,0-.068.314.013.314" transform="translate(-1407.037 -17.425)" fill="#fff"/>
        <path id="Path_1072" data-name="Path 1072" d="M1518.511,18.269l.016,10.714c0,.05-.192.064-.192,0s.163-10.41-8.564-10.4l-3.274,0c-.184,0-.294.036-.294.192l.021,13.38c0,.127.115.194.289.194l1.093,0c5.195-.008,4.768-5.74,4.768-5.807s.2-.052.2,0,.029,12.037.029,12.091-.153.066-.154,0-.128-5.977-4.964-5.969h-.975c-.169,0-.288.068-.288.2l.022,14.4c0,.1.112.194.294.194l3.141.006c9.379.011,9.237-11.065,9.237-11.119s.238-.05.239,0l.017,11.474-19.8.031c-.059,0-.054-.316,0-.316l1.979,0c.178,0,.29-.068.29-.194,0-2.5-.04-28.322-.044-28.538,0-.184-.219-.2-.291-.2l-4.379.007s-.287,0-.287.183c0,2.031.029,19.166.034,21.6v.012c.021,6.042-4.2,8.018-7.236,8.081l0-.01c-3.572.025-9.994-.627-10.007-9.338,0,0-.047-19.826-.054-20.1-.014-.431-.5-.409-.5-.409l-2.1.007c-.067,0-.054-.316,0-.316l9.884-.016c.054,0,.037.316,0,.316l-2.1,0s-.65-.041-.649.432c0,.668.048,22.118.049,22.876.005,3.342,1.73,6.3,5.475,6.229,2.921-.061,6.975-1.961,6.957-7.768,0-.283-.032-19.45-.034-21.6-.013-.167-.31-.183-.31-.183l-2.745,0c-.06,0-.05-.3.009-.3l25.194-.047" transform="translate(-1408.99 -17.495)" fill="#fff"/>
      </g>
      <g id="Group_3091" data-name="Group 3091" transform="translate(2.615 35.287)">
        <g id="Group_3084" data-name="Group 3084" transform="translate(49.302)">
          <g id="Group_3076" data-name="Group 3076" transform="translate(20.433 0.11)">
            <g id="Group_3075" data-name="Group 3075">
              <path id="Path_1073" data-name="Path 1073" d="M1491.442,58.076l-3.588-.015V57.64c0-.214.015-1.086.017-1.145.006-.154-.18-.155-.667-.272a14.313,14.313,0,0,0-1.523-.212,13.9,13.9,0,0,1,.139,1.8l-.006,2.2-1.292-.006c.021-.069.436-.938.537-1.168.053-.123.15-.211-.234-.37a12.666,12.666,0,0,0-1.512-.507c-.192,1.277-.4,2.347-.612,3.19-.294,1.049-.646,2.136-.877,2.729a6.275,6.275,0,0,0,.824-.666,8.083,8.083,0,0,0,1.026-1.465c.062-.091.127-.228.208-.363a4.109,4.109,0,0,1,.6,1.575c.081.5.184.8.307.846a.679.679,0,0,0,.25.114.076.076,0,0,1-.042.023,25.359,25.359,0,0,1-3.241,2.221,9.348,9.348,0,0,0,3.466-.988,10.2,10.2,0,0,0,2.2-1.359,11.083,11.083,0,0,0,2.037-2.09,15.62,15.62,0,0,0,1.135-1.487c0-.182-.139-.4-.831-.755a3.546,3.546,0,0,0-1.508-.522c-.216.553-.31.805-.406,1.056l.005-1.582,3.5.015A.917.917,0,0,0,1491.442,58.076Zm-4.782,4.143a5.652,5.652,0,0,1-.437.545v-.069c0-.25-.207-.547-.6-.891a8,8,0,0,0-1.531-.805c.083-.159.165-.364.271-.614l3.316.014A13.8,13.8,0,0,1,1486.66,62.219Z" transform="translate(-1481.754 -56.012)" fill="#fff"/>
            </g>
          </g>
          <g id="Group_3077" data-name="Group 3077" transform="translate(41.907 1.163)">
            <path id="Path_1074" data-name="Path 1074" d="M1518.673,71.127l.023-7.064.04-2.559a41.783,41.783,0,0,1,.175-4.286,14.84,14.84,0,0,0-2.739,1.06l-3.12-.013-5.156-.021a14.821,14.821,0,0,0-2.733-1.083c.159,1.688.239,3.124.235,4.289l-.031,9.805c0,1.368-.072,3.219-.182,5,0,.457.227.429.724.431a5.766,5.766,0,0,0,.685-.065c.725-.133,1.1-.361,1.1-.634l0-1.254,8.537.036,0,1.254c0,.273.4.5,1.125.643a6.805,6.805,0,0,0,.756.072c.5,0,.725-.012.726-.469C1518.825,76.011,1518.673,71.127,1518.673,71.127Zm-10.923-12.5,8.565.036-.046,5.392-.005,1.826-8.537-.036ZM1507.7,74.34l.026-8.12,8.538.036-.026,8.12Z" transform="translate(-1505.163 -57.16)" fill="#fff"/>
          </g>
          <g id="Group_3078" data-name="Group 3078">
            <path id="Path_1075" data-name="Path 1075" d="M1477.918,63.935a4.892,4.892,0,0,0-1.557-1.038c-.145,0-.3.822-.484,1.371l-1.9-.008a.846.846,0,0,0,.375-.294,1.731,1.731,0,0,0,.481-1.138,1.667,1.667,0,0,0-.848-1.348.941.941,0,0,1-.185-.115c.583-.546,3.345-3.143,3.507-3.368.13-.179-.079-.421-.592-.816a12.213,12.213,0,0,0-1.609-1.106c-.412-.219-.592-.29-.665.066-.085.292-.166.771-.328,1.257l-1.546-.006a13.664,13.664,0,0,1-2.8-.121l.159.527c.8-.048,1.811-.03,2.7-.027l1.39.006c-.316,1.184-.673,2.424-.944,3.266-.642-.231-2.121-.676-3.158-.908,0,0,2.962,3.986,3.251,4.123l-4.187-.017.013-4.164,0-.816s.083-1.867.175-2.774a16.9,16.9,0,0,0-2.845,1.152l-3.461-.014a16.754,16.754,0,0,0-2.838-1.176c.1,1.049.161,2.122.157,3.217l-.016,4.789c0,.775-.048,1.937-.091,2.713,0,.479.2.32.641.322a4.686,4.686,0,0,0,.643-.066c.643-.133.974-.338.975-.633l0-.526,1.141,0-.01,3.187-.808,0a26.161,26.161,0,0,1-2.789-.072l.18.444c.494,0,1.406-.006,2.609,0l.808,0-.009,3.01c-1.286.154-2.613.263-3.981.349.246.684.41,1.187.534,1.483.406,1,.6,1.48.878,1.38,6.273-2.271,8.563-4.144,8.563-4.144-1.225.245-2.489.467-3.816.645l.009-2.713,3.482.015a.377.377,0,0,0,.223-.364l-3.7-.022.01-3.187,1.141,0v0h.011c0,.053-.006.1-.01.157,0,.3.35.527,1.015.665a5.16,5.16,0,0,0,.684.072c.412,0,.576.077.56-.371l-.009-.514c-.033-.5-.049-1.229-.049-1.682l3.151.013-.027,8.429c0,.5-.147.729-.417.728a12.322,12.322,0,0,1-2.342-.284,10.436,10.436,0,0,1,2.582,3.228,3.171,3.171,0,0,0,1.432-.588c.665-.363,1-1.182,1-2.436l.028-9.068,1.357.006a32.8,32.8,0,0,1-1.036,3.271,4.34,4.34,0,0,0,1.342-.717,15.084,15.084,0,0,0,2.583-2.307C1478.66,64.66,1478.5,64.485,1477.918,63.935Zm-14.435,1.956-1.14,0,.011-3.674,1.14,0Zm.013-4.052-1.14,0,.012-3.837,1.14,0Zm3.3,4.066-1.14,0,.012-3.674,1.14,0Zm-1.127-4.056.013-3.837,1.14,0,0,1.236-.008,2.6Z" transform="translate(-1459.48 -55.892)" fill="#fff"/>
          </g>
          <g id="Group_3080" data-name="Group 3080" transform="translate(26.983 9.033)">
            <g id="Group_3079" data-name="Group 3079">
              <path id="Path_1076" data-name="Path 1076" d="M1492.387,68.294a.7.7,0,0,1-.472.387c-.36.1-.715-.112-1.06-.666a5.774,5.774,0,0,0-1.314-1.466,2.411,2.411,0,0,1-.642-.5c-.02-.092.034-.172.188-.213a2.888,2.888,0,0,1,2.1.268,2.33,2.33,0,0,1,1.261,1.5A1.042,1.042,0,0,1,1492.387,68.294Z" transform="translate(-1488.895 -65.739)" fill="#fff"/>
            </g>
          </g>
          <g id="Group_3083" data-name="Group 3083" transform="translate(20.095 0.278)">
            <g id="Group_3081" data-name="Group 3081" transform="translate(8.776 14.77)">
              <path id="Path_1077" data-name="Path 1077" d="M1499.182,73.048a3,3,0,0,0-1.051-.752,8.281,8.281,0,0,1-1.56,1.819c-.25.25-.519.477-.77.7a12.14,12.14,0,0,0-4.847-.672,11.244,11.244,0,0,1,3.249,1.464,12.05,12.05,0,0,1,2.4,1.72q1.115,1.1,1.426,1.1a1.126,1.126,0,0,0,.977-1.067,1.763,1.763,0,0,0-.494-1.325,5.367,5.367,0,0,0-1.758-.919c.954-.27,3.237-.762,3.237-.762C1500.135,74.358,1499.859,73.786,1499.182,73.048Z" transform="translate(-1490.953 -72.296)" fill="#fff"/>
            </g>
            <g id="Group_3082" data-name="Group 3082">
              <path id="Path_1078" data-name="Path 1078" d="M1487.364,72.179l6.353.022c.082.2.4.348.966.447a4.757,4.757,0,0,0,.643.072c.372,0,.56-.159.561-.522l.006-2.935h.006c.01-.572.031-1.191.082-1.862.208.113.424.22.641.326a7.166,7.166,0,0,0,2.092.738c.167,0,.233-.08.471-.6a14.121,14.121,0,0,1,1.154-1.694,27.418,27.418,0,0,1-4.786-1,15.088,15.088,0,0,1-3.625-1.587c.042,0,.376-.217.438-.239.138-.071-.12-.349-.3-.476a5.516,5.516,0,0,0,3.505-.844c.718.8,2.012,2.911,2.259,2.954a.861.861,0,0,0,.814-.348,1.673,1.673,0,0,0,.322-.974,2.978,2.978,0,0,0-.452-1.405,5.154,5.154,0,0,0-1.893-1.589,14.312,14.312,0,0,0,1.913-2.948,3.086,3.086,0,0,0-1.407-1.225c-.714-.333-.891-.384-.935-.125-.026.142-.136.7-.256,1.237l-1.959-.008c-.6,0-1.285.007-2.225-.08l.211.447,3.865.017a10.717,10.717,0,0,1-.818,2.137,10.125,10.125,0,0,0-3.432-.853,15.712,15.712,0,0,1,2.873,1.837,4.243,4.243,0,0,1-2.478,1.69c-.145-.093-.351-.311-.737-.549a7.272,7.272,0,0,0-1.272-.627,13.245,13.245,0,0,1-3.827,3.975,30.374,30.374,0,0,1-4.755,2.739,7.469,7.469,0,0,0,3.652-.941,33.457,33.457,0,0,1,.152,3.625l-.011,3.49c-.849.065-1.72.106-2.591.149a6.459,6.459,0,0,0,.41,1.187,3.719,3.719,0,0,0,.8,1.3c6.353-2.058,7.931-3.342,7.931-3.342-1.39.222-2.841.376-4.376.506Zm6.323-.351-6.322-.027.005-1.712,6.322.027Zm.006-2.091-6.322-.027.005-1.711,6.322.027Zm-7.764-2.718a59.287,59.287,0,0,0,5.414-3.105,11.649,11.649,0,0,0,2.032,1.882,9.644,9.644,0,0,0,1.034.711c.306.167.554.318.758.458a13.653,13.653,0,0,0-1.6.677l-1.111,0v0l-5.1-.021C1486.86,67.388,1486.385,67.2,1485.929,67.019Z" transform="translate(-1481.386 -56.195)" fill="#fff"/>
            </g>
          </g>
        </g>
        <g id="Group_3090" data-name="Group 3090" transform="translate(0 0.136)">
          <g id="Group_3085" data-name="Group 3085" transform="translate(28.963)">
            <path id="Path_1079" data-name="Path 1079" d="M1444.334,67.72a1.063,1.063,0,0,0,.879-.547,2.173,2.173,0,0,0,.421-1.33c0-.252-.229-.552-.645-.921a9.851,9.851,0,0,0-2.125-1.135l.005-1.814,2.442.01c.119,0,.215-.175.215-.326l-2.656-.011,0-.8,0-1.237s.061-2.637.056-2.9c-.005-.282.083-.288-.262-.352-.98-.188-1.6-.247-2.224-.317a29.161,29.161,0,0,1,.238,4.042l-.005,1.556-.25,0a24.11,24.11,0,0,1-2.86-.127l.141.454c.534,0,1.528,0,2.718,0h.1a40.643,40.643,0,0,1-3.223,9.583s.815-.274,2.01-1.919a17.22,17.22,0,0,0,1.343-2.383l-.016,5.052c0,1.193-.072,2.785-.18,4.209,0,.482.228.452.729.454a4.523,4.523,0,0,0,.626-.066c.669-.158,1-.385,1-.66l.036-11.389A27.414,27.414,0,0,0,1444.334,67.72Z" transform="translate(-1437.309 -56.04)" fill="#fff"/>
          </g>
          <g id="Group_3086" data-name="Group 3086" transform="translate(9.639 0.006)">
            <path id="Path_1080" data-name="Path 1080" d="M1434.832,73.612c0-.253.126-4.154.126-4.154-.254,1.1-.518,1.91-.635,2.336-.172.625-.345,1.193-.471,1.193s-.291-.416-.476-1.266a15.388,15.388,0,0,1-.491-3.307c-.153-2.262-.208-5.315-.2-9.116,0,0,.11-2.37.192-3.192a16.971,16.971,0,0,0-2.654,1.068l-9.24-.039a17.049,17.049,0,0,0-2.646-1.091c.16,1.748.236,4.572.223,8.519a38.77,38.77,0,0,1-.588,7.713,17.489,17.489,0,0,1-1.727,4.493,7.743,7.743,0,0,0,2.724-2.721,14.151,14.151,0,0,0,1.453-3.966,42.47,42.47,0,0,0,.329-5.51l.022-7.1,9.877.041-.005,1.774c0,4.278.1,7.462.3,9.528a24.734,24.734,0,0,0,.9,4.963,5.742,5.742,0,0,0,1.161,2.233,2.354,2.354,0,0,0,1.564.74c.376-.067.585-.365.586-.893a4.415,4.415,0,0,0-.184-.919A5.863,5.863,0,0,1,1434.832,73.612Z" transform="translate(-1416.244 -56.046)" fill="#fff"/>
          </g>
          <g id="Group_3087" data-name="Group 3087" transform="translate(34.92 0.029)">
            <path id="Path_1081" data-name="Path 1081" d="M1453.048,65.067a4.018,4.018,0,0,1-.757-.368,15.065,15.065,0,0,0,3.672-5.752c0-.229-.6-.657-1.048-.918-.656-.383-1.412-.83-1.5-.644-.064.141-.355,1.1-.58,1.576l-3.329-.014c.105-.275.693-1.538.784-1.782.128-.339.141-.339-.214-.465q-.969-.279-2-.628a29.552,29.552,0,0,1-1.1,4.4,26.376,26.376,0,0,1-1.832,3.921,4.154,4.154,0,0,0,.991-.694,12.356,12.356,0,0,0,1.86-2.1c.041-.069.105-.138.169-.229a9.518,9.518,0,0,0,.972,2.392,6.368,6.368,0,0,0,.54.852,14.608,14.608,0,0,1-2.2,2.309,25.328,25.328,0,0,1-3.681,2.235,5.964,5.964,0,0,0,2.462-.4c.04.665.061,1.239.059,1.744l-.014,4.133c0,.529-.045,1.253-.088,1.69,0,.46.205.47.645.472.125,0,.355-.045.669-.089.69-.136,1.045-.34,1.046-.616l0-.643,3.948.017,0,.8c0,.251.355.437,1.042.577a5.685,5.685,0,0,0,.669.072c.4,0,.583,0,.585-.414l.017-5.232,0,0v-.3c.02-.81.073-1.607.143-2.388a19.942,19.942,0,0,0-2.614.957l-3.646-.014a18.476,18.476,0,0,0-2.167-.881c.668-.273,1.337-.592,1.964-.911a12.031,12.031,0,0,0,2.344-1.667,17.463,17.463,0,0,0,2.354,1.587,7.865,7.865,0,0,0,2.378.931c.087,0,.248-.358.523-.778a19.7,19.7,0,0,1,1.28-1.626A21.862,21.862,0,0,1,1453.048,65.067Zm-4.448,4.8,3.948.017-.017,5.259-3.948-.017Zm1.965-6.39a2.768,2.768,0,0,1-.461-.413,7.986,7.986,0,0,1-1.578-2.234c.229-.366.615-1.084.846-1.543l3.378.015A14.552,14.552,0,0,1,1450.565,63.473Z" transform="translate(-1443.802 -56.072)" fill="#fff"/>
          </g>
          <g id="Group_3088" data-name="Group 3088" transform="translate(14.203 2.756)">
            <path id="Path_1082" data-name="Path 1082" d="M1430.7,72.509a4.672,4.672,0,0,0-2.542-1.365c.269.506.5,1.012.7,1.5-.563.044-1.148.086-1.753.108l.01-3.123,1.043,0s0,.413,0,.437c0,.3.333.506,1,.647a4.767,4.767,0,0,0,.626.072c.4,0,.584-.006.586-.418,0,0-.075-2.257-.073-2.886v-2.4c.019-.83.074-1.644.145-2.442a17.946,17.946,0,0,0-2.492.977l-.813,0,.006-2.02c.772-.089,3.071-.333,3.57-.49.2-.064-.312-.575-.936-1.037-.312-.232-.792-.555-1.417-1.017a11.41,11.41,0,0,1-2.738,1.437,22.018,22.018,0,0,1-4.16,1.2s.444.445,3.634.132l-.005,1.791-.751,0a17.372,17.372,0,0,0-2.418-1c.081.965.14,1.953.137,2.963l-.008,2.687c0,.735-.047,1.628-.091,2.34,0,.413.186.438.583.44a4.523,4.523,0,0,0,.605-.068q.941-.167.94-.547l0-.8.982,0-.01,3.237c-1.232.064-2.505.1-3.841.145a12.544,12.544,0,0,0,1.134,2.725c.049-.015,4.854-1.736,6.673-2.691a11.328,11.328,0,0,1,.548,1.344,9.779,9.779,0,0,0,.414,1.173.453.453,0,0,0,.449.266,1.068,1.068,0,0,0,.732-.3,1.656,1.656,0,0,0,.484-1.215A2.821,2.821,0,0,0,1430.7,72.509Zm-3.563-8.562,1.042,0,0,1.116h0l-.014,4.223-1.043,0Zm-2.063,5.332-.981,0,.017-5.341.982,0Z" transform="translate(-1421.219 -59.044)" fill="#fff"/>
          </g>
          <g id="Group_3089" data-name="Group 3089" transform="translate(0 0.976)">
            <path id="Path_1083" data-name="Path 1083" d="M1413.209,63.326l.9-6.145-.331-.06-.911,6.2-3.845-.016.9-6.145-.33-.06-.911,6.2-2.31-.009v.369l2.257.009-.808,5.5-2.086-.008v.369l2.033.008-.967,6.579.331.059.975-6.636,3.846.016-.966,6.579.33.059.975-6.636,2.355.009v-.369l-2.3-.009.809-5.5,2.131.009v-.369Zm-1.2,5.869-3.846-.016.808-5.5,3.846.017Z" transform="translate(-1405.736 -57.104)" fill="#fff"/>
          </g>
        </g>
      </g>
    </g>
    <rect id="Rectangle_166" data-name="Rectangle 166" width="0.666" height="56.505" transform="translate(1379.752 17.425)" fill="#fff"/>
    <g id="Group_3095" data-name="Group 3095" transform="translate(1322 17.425)">
      <g id="Group_3094" data-name="Group 3094" transform="translate(4.506 45.087)">
        <path id="Path_1084" data-name="Path 1084" d="M1342.562,72.2v-.013c-.005-.067-.016-.176-.031-.291a3.512,3.512,0,0,0-.138-.62,3.433,3.433,0,0,0-3.279-2.5,3.572,3.572,0,0,0-.46.031,3.5,3.5,0,0,0-3,4,3.424,3.424,0,0,0,3.451,3.041,3.982,3.982,0,0,0,.462-.029,3.53,3.53,0,0,0,2.389-1.281.209.209,0,0,0,.046-.15.179.179,0,0,0-.079-.121,7.219,7.219,0,0,0-.676-.351l-.134-.065a.322.322,0,0,0-.146-.046.184.184,0,0,0-.14.079,2.226,2.226,0,0,1-1.422.777,2.587,2.587,0,0,1-.3.018,2.323,2.323,0,0,1-2.166-1.494l-.007-.023.02-.01a2.735,2.735,0,0,1,1.142-.229c.081,0,.163,0,.244.01.187.015.375.039.573.064a8.631,8.631,0,0,0,1.189.1,5.841,5.841,0,0,0,.816-.059,4.115,4.115,0,0,0,1.508-.513c.152-.1.147-.18.137-.327m-1.217-.439a4.175,4.175,0,0,1-.723.143,3.713,3.713,0,0,1-.492.028c-.314,0-.655-.025-.985-.05h-.012c-.306-.024-.6-.046-.871-.046a4.383,4.383,0,0,0-.555.034,4.176,4.176,0,0,0-.927.228l0-.044a2.379,2.379,0,0,1,2.031-2.067,2.336,2.336,0,0,1,2.548,1.739l.006.027Z" transform="translate(-1327.632 -66.758)" fill="#fff"/>
        <g id="Group_3093" data-name="Group 3093" transform="translate(30.397)">
          <path id="Rectangle_167" data-name="Rectangle 167" d="M.178,0H1.04a.176.176,0,0,1,.176.176V6.49a.178.178,0,0,1-.178.178H.177A.177.177,0,0,1,0,6.491V.178A.178.178,0,0,1,.178,0Z" transform="translate(0.197 2.262)" fill="#fff"/>
          <path id="Path_1085" data-name="Path 1085" d="M1360.854,66.575a.8.8,0,1,0,.805.806.808.808,0,0,0-.805-.806" transform="translate(-1360.048 -66.575)" fill="#fff"/>
        </g>
        <path id="Path_1086" data-name="Path 1086" d="M1347.7,75.859l.172,0a3.354,3.354,0,0,0,2.4-.991,3.6,3.6,0,0,0-2.518-6.086,3.46,3.46,0,0,0-3.37,2.626,8.065,8.065,0,0,0-.143,1.624v4.977a.163.163,0,0,0,.163.164l.886,0a.165.165,0,0,0,.165-.163V74.875l.047.046a3.527,3.527,0,0,0,2.2.938m.04-5.869a2.289,2.289,0,0,1,2.253,2.369,2.217,2.217,0,0,1-2.185,2.344,2.351,2.351,0,0,1-1.641-.635,2.277,2.277,0,0,1-.682-1.669,2.339,2.339,0,0,1,2.255-2.41" transform="translate(-1328.344 -66.758)" fill="#fff"/>
        <path id="Path_1087" data-name="Path 1087" d="M1330.373,75.859l.171,0a3.354,3.354,0,0,0,2.4-.991,3.6,3.6,0,0,0-2.519-6.086,3.458,3.458,0,0,0-3.37,2.626,8,8,0,0,0-.144,1.624v4.977a.164.164,0,0,0,.163.164l.887,0a.165.165,0,0,0,.165-.163V74.875l.045.046a3.531,3.531,0,0,0,2.2.938m.038-5.869a2.29,2.29,0,0,1,2.254,2.369,2.218,2.218,0,0,1-2.187,2.344,2.344,2.344,0,0,1-1.639-.635,2.274,2.274,0,0,1-.683-1.669,2.34,2.34,0,0,1,2.256-2.41" transform="translate(-1326.912 -66.758)" fill="#fff"/>
        <path id="Path_1088" data-name="Path 1088" d="M1352.823,74.746a3.821,3.821,0,0,0,2.705,1.108h.034c1.884-.013,2.728-1.043,2.728-2.059a1.986,1.986,0,0,0-1.732-1.874l-.4-.077c-.329-.064-.67-.128-.98-.214-.216-.061-.924-.3-.924-.825,0-.583.645-.9,1.253-.9a2.154,2.154,0,0,1,1.48.511.281.281,0,0,0,.175.072.272.272,0,0,0,.161-.058,6.507,6.507,0,0,0,.609-.527.183.183,0,0,0,.061-.14.259.259,0,0,0-.092-.164,3.576,3.576,0,0,0-2.415-.816h-.007a2.268,2.268,0,0,0-2.48,2.113c0,.954.784,1.632,2.205,1.911l.892.172c.584.106.914.417.9.852s-.531.864-1.386.864a2.675,2.675,0,0,1-1.825-.74l-.008-.007a.22.22,0,0,0-.139-.074.215.215,0,0,0-.13.057c-.054.043-.649.513-.713.58a.137.137,0,0,0-.04.1.2.2,0,0,0,.07.135" transform="translate(-1329.048 -66.758)" fill="#fff"/>
      </g>
      <path id="Path_1089" data-name="Path 1089" d="M1342.512,17.425a20.511,20.511,0,1,0,20.508,20.511A20.509,20.509,0,0,0,1342.512,17.425Zm-19.034,20.511a19.033,19.033,0,0,1,30.448-15.231,39.514,39.514,0,0,1-26.732,26.529A18.952,18.952,0,0,1,1323.478,37.936Zm19.033,19.033a18.986,18.986,0,0,1-14.6-6.827c11.564-3.645,19.939-3.649,25.686-7.882a13.274,13.274,0,0,0,4.882-14.674,19.027,19.027,0,0,1-15.967,29.382Z" transform="translate(-1322 -17.425)" fill="#fff"/>
    </g>
  </g>
</svg>
