<svg xmlns="http://www.w3.org/2000/svg" xmlns:xlink="http://www.w3.org/1999/xlink" width="22" height="22" viewBox="0 0 22 22">
  <defs>
    <clipPath id="clip-QRcode">
      <rect width="22" height="22"/>
    </clipPath>
  </defs>
  <g id="QRcode" clip-path="url(#clip-QRcode)">
    <g id="Group_2530" data-name="Group 2530" transform="translate(-5 -5)">
      <path id="Path_102" data-name="Path 102" d="M11.768,6H7.154A1.153,1.153,0,0,0,6,7.154v4.614" fill="none" stroke="#fff" stroke-linecap="round" stroke-linejoin="round" stroke-width="2"/>
      <path id="Path_103" data-name="Path 103" d="M11.768,37.768H7.154A1.153,1.153,0,0,1,6,36.614V32" transform="translate(0 -11.768)" fill="none" stroke="#fff" stroke-linecap="round" stroke-linejoin="round" stroke-width="2"/>
      <path id="Path_104" data-name="Path 104" d="M32,37.768h4.614a1.153,1.153,0,0,0,1.154-1.154V32" transform="translate(-11.768 -11.768)" fill="none" stroke="#fff" stroke-linecap="round" stroke-linejoin="round" stroke-width="2"/>
      <path id="Path_105" data-name="Path 105" d="M32,6h4.614a1.153,1.153,0,0,1,1.154,1.154v4.614" transform="translate(-11.768)" fill="none" stroke="#fff" stroke-linecap="round" stroke-linejoin="round" stroke-width="2"/>
      <path id="Path_106" data-name="Path 106" d="M24.771,24H14" transform="translate(-3.386 -8)" fill="none" stroke="#fff" stroke-linecap="round" stroke-linejoin="round" stroke-width="2"/>
      <path id="Path_107" data-name="Path 107" d="M24.461,16H21" transform="translate(-6.73 -4.444)" fill="none" stroke="#fff" stroke-linecap="round" stroke-linejoin="round" stroke-width="2"/>
      <path id="Path_108" data-name="Path 108" d="M24.461,32H21" transform="translate(-6.73 -11.556)" fill="none" stroke="#fff" stroke-linecap="round" stroke-linejoin="round" stroke-width="2"/>
    </g>
  </g>
</svg>
