<svg xmlns="http://www.w3.org/2000/svg" xmlns:xlink="http://www.w3.org/1999/xlink" width="15" height="15" viewBox="0 0 15 15">
  <defs>
    <clipPath id="clip-small-smile-1">
      <rect width="15" height="15"/>
    </clipPath>
  </defs>
  <g id="small-smile-1" clip-path="url(#clip-small-smile-1)">
    <g id="Group_2944" data-name="Group 2944" transform="translate(-1364.881 -95.794)">
      <circle id="Ellipse_6" data-name="Ellipse 6" cx="7.441" cy="7.441" r="7.441" transform="translate(1364.94 95.853)" fill="#fff"/>
      <path id="Path_964" data-name="Path 964" d="M1372.381,110.794a7.5,7.5,0,1,1,7.5-7.5A7.509,7.509,0,0,1,1372.381,110.794Zm0-14.881a7.382,7.382,0,1,0,7.382,7.381A7.389,7.389,0,0,0,1372.381,95.913Z" fill="#101820"/>
      <g id="Group_2939" data-name="Group 2939">
        <path id="Path_965" data-name="Path 965" d="M1372.381,109.037a5.473,5.473,0,0,1-5.467-5.467h.475a4.992,4.992,0,1,0,9.985,0h.474A5.473,5.473,0,0,1,1372.381,109.037Z" fill="#101820"/>
      </g>
      <g id="Group_2940" data-name="Group 2940">
        <path id="Path_966" data-name="Path 966" d="M1373.318,101.453c0,.72-.292,1.3-.652,1.3s-.651-.583-.651-1.3.291-1.3.651-1.3S1373.318,100.734,1373.318,101.453Z" fill="#101820"/>
      </g>
      <g id="Group_2941" data-name="Group 2941">
        <path id="Path_967" data-name="Path 967" d="M1370.2,101.453c0,.72-.292,1.3-.652,1.3s-.651-.583-.651-1.3.291-1.3.651-1.3S1370.2,100.734,1370.2,101.453Z" fill="#101820"/>
      </g>
      <g id="Group_2942" data-name="Group 2942">
        <rect id="Rectangle_141" data-name="Rectangle 141" width="3.712" height="0.475" transform="translate(1375.495 103.333)" fill="#101820"/>
      </g>
      <g id="Group_2943" data-name="Group 2943">
        <rect id="Rectangle_142" data-name="Rectangle 142" width="3.713" height="0.475" transform="translate(1365.555 103.333)" fill="#101820"/>
      </g>
    </g>
  </g>
</svg>
