<svg xmlns="http://www.w3.org/2000/svg" xmlns:xlink="http://www.w3.org/1999/xlink" width="42" height="49" viewBox="0 0 42 49">
  <defs>
    <clipPath id="clip-smile-1">
      <rect width="42" height="49"/>
    </clipPath>
  </defs>
  <g id="smile-1" clip-path="url(#clip-smile-1)">
    <g id="Group_3133" data-name="Group 3133" transform="translate(-1648 81.998)">
      <g id="Group_3131" data-name="Group 3131" transform="translate(-88.992 -161.164)">
        <path id="Path_1022" data-name="Path 1022" d="M1761.019,116.258a11.9,11.9,0,1,1-11.9-11.874,11.885,11.885,0,0,1,11.9,11.874" fill="#101820"/>
        <path id="Path_1023" data-name="Path 1023" d="M1749.123,126.164a9.736,9.736,0,0,1-9.7-9.747h1.245a8.458,8.458,0,0,0,16.915,0h1.246A9.736,9.736,0,0,1,1749.123,126.164Z" fill="#fff"/>
        <path id="Path_1024" data-name="Path 1024" d="M1742.985,118.838a6.175,6.175,0,0,0,4.587-2.9c.915-1.51,1.328-4.092.279-5.659a1.628,1.628,0,0,0-2.39-.377,4.322,4.322,0,0,0-1.294,2.512c-.434,1.873-.444,4.7,1.354,5.727a5.265,5.265,0,0,0,5.022-.312,7.3,7.3,0,0,0,3.331-3.962c.516-1.451.71-3.79-.912-4.475a2.449,2.449,0,0,0-2.587.572,4.841,4.841,0,0,0-1.06,2.452c-.377,1.808-.54,4.691,1.06,5.868,1.753,1.29,4.431.293,5.9-1.047a.818.818,0,0,0-1.1-1.209,4.076,4.076,0,0,1-3.392,1.044c-1.26-.247-1.13-1.868-1.095-2.956.027-.865.151-2.571.93-3.028,1.314-.77,1.115,1.1.9,1.883a5.461,5.461,0,0,1-4.659,3.951,2.923,2.923,0,0,1-1.471-.213,1.853,1.853,0,0,1-.855-1.676,6.634,6.634,0,0,1,.114-2.047c.068-.317.364-1.8.836-1.738.41.053.412,1.327.4,1.675a4.387,4.387,0,0,1-.6,2.058,4.522,4.522,0,0,1-3.3,2.152c-.984.125-1,1.837,0,1.709" fill="#fff"/>
        <path id="Path_1025" data-name="Path 1025" d="M1749.123,128.388a12.13,12.13,0,1,1,12.13-12.13A12.144,12.144,0,0,1,1749.123,128.388Zm0-23.747a11.617,11.617,0,1,0,11.663,11.617A11.654,11.654,0,0,0,1749.123,104.641Z" fill="#fff"/>
      </g>
      <g id="Group_3132" data-name="Group 3132" transform="translate(-88.992 -161.164)">
        <path id="Path_1026" data-name="Path 1026" d="M1761.653,79.55l1.465,3.96,2.31-3.534.547,4.186,3.038-2.932-.4,4.2,3.614-2.182-1.323,4.009,4.009-1.323-2.182,3.614,4.2-.4L1774,92.191l4.186.547-3.534,2.31,3.96,1.465-3.96,1.465,3.534,2.31-4.186.547,2.932,3.038-4.2-.4,2.182,3.614-4.009-1.323,1.323,4.009-3.614-2.182.4,4.2-3.038-2.932-.547,4.186-2.31-3.534-1.465,3.96-1.465-3.96-2.31,3.534-.547-4.186-3.038,2.932.4-4.2-3.614,2.182,1.323-4.009-4.009,1.323,2.182-3.614-4.2.4,2.932-3.038-4.186-.547,3.534-2.31-3.96-1.465,3.96-1.465-3.534-2.31,4.186-.547-2.932-3.038,4.2.4-2.182-3.614,4.009,1.323-1.323-4.009,3.614,2.182-.4-4.2,3.038,2.932.547-4.186,2.31,3.534Z" fill="#fff"/>
        <path id="Path_1027" data-name="Path 1027" d="M1761.653,113.861l-1.5-4.05-2.361,3.615-.56-4.281-3.107,3,.407-4.3-3.7,2.232,1.353-4.1-4.1,1.353,2.232-3.7-4.3.407,3-3.107-4.281-.56,3.614-2.361-4.049-1.5,4.049-1.5-3.614-2.362,4.281-.559-3-3.107,4.3.407-2.232-3.7,4.1,1.354-1.353-4.1,3.7,2.231-.407-4.3,3.107,3,.56-4.281,2.361,3.614,1.5-4.049,1.5,4.05,2.362-3.615.56,4.281,3.106-3-.406,4.3,3.7-2.231-1.354,4.1,4.1-1.354-2.232,3.7,4.3-.407-3,3.107,4.281.559-3.614,2.362,4.049,1.5-4.05,1.5,3.615,2.361-4.281.56,3,3.107-4.3-.407,2.232,3.7-4.1-1.353,1.354,4.1-3.7-2.232.406,4.3-3.106-3-.56,4.281-2.362-3.615Zm-1.432-4.638,1.432,3.87,1.432-3.87,2.257,3.455.535-4.092,2.969,2.865-.389-4.108,3.533,2.133-1.293-3.919,3.919,1.293-2.133-3.532,4.107.389-2.865-2.969,4.092-.535-3.454-2.257,3.869-1.433-3.87-1.432,3.455-2.257-4.092-.535,2.865-2.97-4.107.39,2.133-3.533-3.919,1.293,1.293-3.918-3.533,2.133.389-4.108-2.969,2.865-.535-4.092-2.257,3.455-1.432-3.87-1.432,3.87-2.257-3.455-.535,4.092-2.97-2.865.389,4.108-3.532-2.133,1.293,3.918-3.918-1.293,2.133,3.533-4.109-.39,2.866,2.97-4.092.535,3.454,2.257-3.87,1.432,3.87,1.433-3.454,2.257,4.092.535-2.866,2.969,4.109-.389-2.133,3.532,3.918-1.293-1.293,3.919,3.532-2.133-.389,4.108,2.97-2.865.535,4.092Z" fill="#101820"/>
        <g id="Group_2991" data-name="Group 2991">
          <path id="Path_1028" data-name="Path 1028" d="M1762.007,105.8a7.8,7.8,0,0,1-7.789-7.788h1.066a6.723,6.723,0,0,0,13.425.532h-9.4V90.991h-5.339V89.925h6.4v7.557h9.422v.533A7.8,7.8,0,0,1,1762.007,105.8Z" fill="#101820"/>
        </g>
        <g id="Group_2992" data-name="Group 2992">
          <rect id="Rectangle_149" data-name="Rectangle 149" width="5.871" height="1.065" transform="translate(1763.465 89.925)" fill="#101820"/>
        </g>
      </g>
    </g>
  </g>
</svg>
